HIERARCHY
ROOT Hips
{
  OFFSET 38.9256 100.715 9.78224
  CHANNELS 6 Xposition Yposition Zposition Zrotation Xrotation Yrotation
  JOINT spine
  {
    OFFSET 0 8.81704 0.507024
    CHANNELS 3 Zrotation Xrotation Yrotation
    JOINT spine1
    {
      OFFSET 0 10.7766 0
      CHANNELS 3 Zrotation Xrotation Yrotation
      JOINT spine2
      {
        OFFSET 0 10.3259 0
        CHANNELS 3 Zrotation Xrotation Yrotation
        JOINT Neck
        {
          OFFSET 0 26.511 1.26395
          CHANNELS 3 Zrotation Xrotation Yrotation
          JOINT Head
          {
            OFFSET 0 8.00966 0
            CHANNELS 3 Zrotation Xrotation Yrotation
            End Site
            {
              OFFSET 0 19.3879 -6.39386
            }
          }
        }
        JOINT RightShoulder
        {
          OFFSET -4.34795 11.1512 -0.605422
          CHANNELS 3 Zrotation Xrotation Yrotation
          JOINT RightArm
          {
            OFFSET 0 14.6258 0
            CHANNELS 3 Zrotation Xrotation Yrotation
            JOINT RightArmRoll
            {
              OFFSET 0 7.3834 0
              CHANNELS 3 Zrotation Xrotation Yrotation
              JOINT RightForeArm
              {
                OFFSET 0 21.5052 0
                CHANNELS 3 Zrotation Xrotation Yrotation
                JOINT RightForeArmRoll
                {
                  OFFSET 0 8.28532 0
                  CHANNELS 3 Zrotation Xrotation Yrotation
                  JOINT RightHand
                  {
                    OFFSET 0 16.6268 0
                    CHANNELS 3 Zrotation Xrotation Yrotation
                    End Site
                    {
                      OFFSET 0 0 0
                    }
                  }
                }
              }
            }
          }
        }
        JOINT LeftShoulder
        {
          OFFSET 4.34795 11.1512 -0.605422
          CHANNELS 3 Zrotation Xrotation Yrotation
          JOINT LeftArm
          {
            OFFSET 0 14.6258 0
            CHANNELS 3 Zrotation Xrotation Yrotation
            JOINT LeftArmRoll
            {
              OFFSET 0 7.3834 0
              CHANNELS 3 Zrotation Xrotation Yrotation
              JOINT LeftForeArm
              {
                OFFSET 0 21.5052 0
                CHANNELS 3 Zrotation Xrotation Yrotation
                JOINT LeftForeArmRoll
                {
                  OFFSET 0 8.28532 0
                  CHANNELS 3 Zrotation Xrotation Yrotation
                  JOINT LeftHand
                  {
                    OFFSET 0 16.6268 0
                    CHANNELS 3 Zrotation Xrotation Yrotation
                    End Site
                    {
                      OFFSET 0 0 0
                    }
                  }
                }
              }
            }
          }
        }
      }
    }
  }
  JOINT RightUpLeg
  {
    OFFSET -7.8151 -1.43309 -1.20217
    CHANNELS 3 Zrotation Xrotation Yrotation
    JOINT RightUpLegRoll
    {
      OFFSET 0 19.4959 0
      CHANNELS 3 Zrotation Xrotation Yrotation
      JOINT RightLeg
      {
        OFFSET 0 -24.1427 0
        CHANNELS 3 Zrotation Xrotation Yrotation
        JOINT RightLegRoll
        {
          OFFSET 0 24.2217 0
          CHANNELS 3 Zrotation Xrotation Yrotation
          JOINT RightFoot
          {
            OFFSET 0 20.1605 0
            CHANNELS 3 Zrotation Xrotation Yrotation
            JOINT RightToeBase
            {
              OFFSET 0 16.8532 0
              CHANNELS 3 Zrotation Xrotation Yrotation
              End Site
              {
                OFFSET 0.00714343 8.16186 -0.940781
              }
            }
          }
        }
      }
    }
  }
  JOINT LeftUpLeg
  {
    OFFSET 7.8151 -1.43309 -1.20217
    CHANNELS 3 Zrotation Xrotation Yrotation
    JOINT LeftUpLegRoll
    {
      OFFSET 0 19.496 0
      CHANNELS 3 Zrotation Xrotation Yrotation
      JOINT LeftLeg
      {
        OFFSET 0 24.1426 0
        CHANNELS 3 Zrotation Xrotation Yrotation
        JOINT LeftLegRoll
        {
          OFFSET 0 24.4456 0
          CHANNELS 3 Zrotation Xrotation Yrotation
          JOINT LeftFoot
          {
            OFFSET 0 19.9366 0
            CHANNELS 3 Zrotation Xrotation Yrotation
            JOINT LeftToeBase
            {
              OFFSET 0 16.8532 0
              CHANNELS 3 Zrotation Xrotation Yrotation
              End Site
              {
                OFFSET -0.0320138 8.16187 -0.94078
              }
            }
          }
        }
      }
    }
  }
}
MOTION
Frames: 9
Frame Time: 0.00208333
53.3438 99.9593 10.7101 0.53098 -4.72513 18.5801 0.169379 -0.660497 0.420631 0.317143 2.68352 0.822058 0.307752 4.32851 0.817682 -4.42125 17.9808 10.2727 -7.81175 -8.30077 7.56832 44.897 7.42112 7.61134 165.435 36.5058 -92.3447 6.36111e-015 -1.59028e-015 3.18055e-015 36.8021 64.9838 -24.0498 2.77773e-006 1.02236e-006 -3.00105 8.02885 -4.95106 0.697371 -61.4096 -9.33925 5.84081 -80.7175 20.0159 17.1226 1.08338e-014 1.19271e-015 -0 -30.0643 37.1167 9.65566 9.77759e-006 -4.13938e-007 3 -8.02989 -4.95092 -0.697222 174.306 5.21655 2.44711 180 7.01476e-015 178.651 179.764 25.1864 179.165 1.36302e-006 -6.64027e-007 0.748209 -22.555 72.3443 24.0028 8.16416 27.474 -0.551585 -174.167 3.56166 0.202179 4.54188e-006 -4.6773e-006 -0.973332 -2.76379 -14.9585 0.231369 -2.79619e-006 -1.61307e-006 -0.134841 18.9611 71.0683 -22.2692 -8.13097 25.233 3.48538 
53.3148 99.9516 10.719 0.549361 -4.71248 18.6439 0.170406 -0.664074 0.418376 0.320547 2.67698 0.817377 0.311206 4.32197 0.812919 -4.4046 17.986 10.296 -7.90137 -8.33218 7.57711 45.0261 7.42588 7.58319 165.272 36.5259 -92.1475 4.77083e-015 -1.74931e-014 3.18055e-015 36.7356 64.9822 -24.0079 2.77773e-006 1.02236e-006 -3.00105 8.02885 -4.95106 0.697371 -61.385 -9.36148 5.85376 -80.6988 19.9712 17.2037 7.45443e-016 7.95139e-016 -0 -29.9969 37.4926 9.76312 9.77759e-006 -4.13938e-007 3 -8.02989 -4.95092 -0.697222 174.271 5.19173 2.45108 180 7.01477e-015 178.652 179.777 25.1446 179.165 1.36302e-006 -6.64027e-007 0.748711 -22.5818 72.3653 24.0285 8.16488 27.4611 -0.569524 -174.153 3.56533 0.196337 4.54188e-006 -4.6773e-006 -0.972082 -2.76596 -14.9289 0.232045 -2.79619e-006 -1.61307e-006 -0.132961 18.9228 71.0525 -22.2508 -8.13097 25.233 3.48538 
53.2762 99.9467 10.7103 0.567652 -4.7001 18.7077 0.171387 -0.667548 0.41618 0.32391 2.67069 0.812817 0.314618 4.31568 0.808277 -4.38454 17.9912 10.3183 -7.99426 -8.36404 7.58527 45.1546 7.42959 7.55441 165.113 36.5436 -91.9554 6.36111e-015 1.74931e-014 1.27222e-014 36.6688 64.9821 -23.9662 2.77773e-006 1.02236e-006 -3.00105 8.02885 -4.95106 0.697371 -61.3596 -9.38321 5.86641 -80.6789 19.9254 17.2865 7.00716e-015 1.19271e-015 -0 -29.9334 37.8702 9.87401 9.77759e-006 -4.13938e-007 3 -8.02989 -4.95092 -0.697222 174.236 5.16712 2.45557 180 7.01477e-015 178.652 179.79 25.1033 179.164 1.36302e-006 -6.64027e-007 0.749176 -22.6073 72.3854 24.0529 8.16559 27.4486 -0.586902 -174.14 3.56833 0.190531 4.54188e-006 -4.6773e-006 -0.970863 -2.76815 -14.8986 0.232712 -2.79619e-006 -1.61307e-006 -0.131117 18.8847 71.0366 -22.2323 -8.13097 25.233 3.48538 
53.2372 99.9456 10.7243 0.585873 -4.6879 18.7713 0.172337 -0.67095 0.414026 0.327245 2.66457 0.808342 0.318 4.30956 0.803721 -4.3621 17.9963 10.34 -8.08945 -8.39623 7.59299 45.2828 7.43258 7.52518 164.956 36.5594 -91.7668 1.11319e-014 3.18055e-015 1.27222e-014 36.6018 64.9831 -23.9248 2.77773e-006 1.02236e-006 -3.00105 8.02885 -4.95106 0.697371 -61.3338 -9.40459 5.87885 -80.6582 19.8789 17.3703 1.28713e-014 7.95139e-016 -0 -29.8732 38.2488 9.98783 9.77759e-006 -4.13938e-007 3 -8.02989 -4.95092 -0.697222 174.199 5.14263 2.46042 180 7.01477e-015 178.653 179.803 25.0624 179.164 1.36302e-006 -6.64027e-007 0.749615 -22.632 72.4048 24.0765 8.16629 27.4365 -0.603888 -174.127 3.57086 0.18475 4.54188e-006 -4.6773e-006 -0.969666 -2.77038 -14.8678 0.233371 -2.79619e-006 -1.61307e-006 -0.129296 18.8469 71.0205 -22.2137 -8.13097 25.233 3.48538 
53.1987 99.9455 10.7317 0.604043 -4.67582 18.8348 0.173268 -0.674311 0.411896 0.330562 2.65854 0.803915 0.321364 4.30353 0.799213 -4.3383 18.0015 10.3612 -8.18593 -8.42861 7.60045 45.4107 7.43515 7.4957 164.8 36.5738 -91.5801 1.59028e-015 9.54166e-015 9.54166e-015 36.5347 64.9847 -23.8834 2.77773e-006 1.02236e-006 -3.00105 8.02885 -4.95106 0.697371 -61.3077 -9.42577 5.89117 -80.637 19.8319 17.4549 7.15625e-015 3.97569e-016 -7.95139e-016 -29.8157 38.6279 10.1041 9.77759e-006 -4.13938e-007 3 -8.02989 -4.95092 -0.697222 174.163 5.11823 2.46548 180 7.01477e-015 178.653 179.816 25.0217 179.163 1.36302e-006 -6.64027e-007 0.750041 -22.6563 72.4237 24.0995 8.16698 27.4245 -0.620647 -174.114 3.57311 0.178984 4.54188e-006 -4.6773e-006 -0.968481 -2.77261 -14.8368 0.234028 -2.79619e-006 -1.61307e-006 -0.127489 18.8092 71.0043 -22.1951 -8.13097 25.233 3.48538 
53.1449 99.9518 10.7437 0.622183 -4.66376 18.8983 0.174195 -0.677662 0.409771 0.333875 2.65255 0.7995 0.324723 4.29754 0.794717 -4.31417 18.0066 10.3824 -8.28274 -8.46104 7.60786 45.5386 7.43761 7.46616 164.644 36.5872 -91.3939 -3.53113e-031 1.59028e-015 1.27222e-014 36.4676 64.9864 -23.8421 2.77773e-006 1.02236e-006 -3.00105 8.02885 -4.95106 0.697371 -61.2815 -9.44689 5.90346 -80.6155 19.7848 17.5395 -7.45443e-015 -7.95139e-016 -0 -29.7605 39.0069 10.2222 9.77759e-006 -4.13938e-007 3 -8.02989 -4.95092 -0.697222 174.126 5.09384 2.47059 180 7.01477e-015 178.653 179.829 24.9811 179.162 1.36302e-006 -6.64027e-007 0.750462 -22.6804 72.4426 24.1224 8.16765 27.4125 -0.637347 -174.101 3.5753 0.173222 4.54188e-006 -4.6773e-006 -0.967299 -2.77485 -14.8056 0.234683 -2.79619e-006 -1.61307e-006 -0.125686 18.7716 70.9881 -22.1765 -8.13097 25.233 3.48538 
53.1128 99.9546 10.7565 0.64031 -4.65165 18.9619 0.17513 -0.681033 0.407635 0.337194 2.6465 0.795062 0.328089 4.29149 0.790198 -4.29072 18.0117 10.4038 -8.37888 -8.49336 7.61539 45.6667 7.44028 7.43674 164.487 36.6001 -91.2064 1.59028e-015 -9.54166e-015 -3.18055e-015 36.4006 64.9878 -23.8007 2.77773e-006 1.02236e-006 -3.00105 8.02885 -4.95106 0.697371 -61.2555 -9.46812 5.91581 -80.5941 19.7379 17.6238 8.94531e-016 7.95139e-016 -0 -29.7068 39.3853 10.3416 9.77759e-006 -4.13938e-007 3 -8.02989 -4.95092 -0.697222 174.089 5.06942 2.4756 180 7.01477e-015 178.654 179.842 24.9403 179.162 1.36302e-006 -6.64027e-007 0.750891 -22.7049 72.4616 24.1457 8.16832 27.4005 -0.654154 -174.088 3.57762 0.167452 4.54188e-006 -4.6773e-006 -0.966111 -2.77709 -14.7747 0.235339 -2.79619e-006 -1.61307e-006 -0.123876 18.734 70.972 -22.158 -8.13097 25.233 3.48538 
53.0943 99.9541 10.7606 0.658443 -4.63941 19.0255 0.176088 -0.684456 0.405469 0.340533 2.64033 0.790563 0.331475 4.28532 0.785617 -4.26898 18.0169 10.4256 -8.47337 -8.52546 7.62325 45.795 7.44347 7.40763 164.329 36.6128 -91.0161 6.36111e-015 1.11319e-014 2.22639e-014 36.3336 64.9884 -23.7591 2.77773e-006 1.02236e-006 -3.00105 8.02885 -4.95106 0.697371 -61.2298 -9.48959 5.92832 -80.5731 19.6915 17.7072 3.97569e-016 0 7.95139e-016 -29.6542 39.7625 10.4618 9.77759e-006 -4.13938e-007 3 -8.02989 -4.95092 -0.697222 174.053 5.0449 2.48035 180 7.01477e-015 178.654 179.855 24.8993 179.161 1.36302e-006 -6.64027e-007 0.751338 -22.73 72.4811 24.1697 8.16899 27.3882 -0.671236 -174.075 3.58028 0.161664 4.54188e-006 -4.6773e-006 -0.964907 -2.77931 -14.744 0.236001 -2.79619e-006 -1.61307e-006 -0.122048 18.6963 70.9559 -22.1395 -8.13097 25.233 3.48538 
53.0483 99.9535 10.7753 0.6766 -4.62696 19.0893 0.177081 -0.687961 0.403255 0.343902 2.63396 0.785966 0.334893 4.27895 0.78094 -4.24997 18.022 10.4482 -8.56523 -8.55718 7.63163 45.9237 7.44749 7.37904 164.168 36.6258 -90.8213 -6.36111e-015 1.74931e-014 6.36111e-015 36.2669 64.9878 -23.7174 2.77773e-006 1.02236e-006 -3.00105 8.02885 -4.95106 0.697371 -61.2045 -9.51146 5.94108 -80.5528 19.646 17.7892 2.83268e-015 3.97569e-016 -7.95139e-016 -29.6018 40.1381 10.5822 9.77759e-006 -4.13938e-007 3 -8.02989 -4.95092 -0.697222 174.018 5.02022 2.48468 180 7.01478e-015 178.655 179.868 24.8579 179.161 1.36302e-006 -6.64027e-007 0.751814 -22.7563 72.5015 24.1949 8.16965 27.3756 -0.688758 -174.061 3.58349 0.155847 4.54188e-006 -4.6773e-006 -0.963679 -2.7815 -14.7139 0.236669 -2.79619e-006 -1.61307e-006 -0.120193 18.6583 70.94 -22.1213 -8.13097 25.233 3.48538 
